# Blender v2.81 (sub 16) OBJ File: 'Dagger.blend'
# www.blender.org
mtllib Dagger.mtl
o Cube_Cube.001
v -0.027793 -0.522581 0.079203
v -0.011392 0.090029 0.070311
v -0.027793 -0.522581 -0.079203
v 0.000000 0.090029 -0.070311
v 0.027793 -0.522581 0.079203
v 0.011392 0.090029 0.070311
v 0.027793 -0.522581 -0.079203
v 0.000000 0.090029 -0.070311
v -0.027793 -0.008565 0.079203
v -0.027793 -0.008565 -0.079203
v 0.027793 -0.008565 -0.079203
v 0.027793 -0.008565 0.079203
v -0.027793 -0.008565 0.079203
v -0.027793 0.090029 0.079203
v -0.027793 0.090029 -0.079203
v 0.027793 0.090029 -0.079203
v 0.027793 0.090029 0.079203
v -0.027793 -0.008565 -0.079203
v 0.027793 -0.008565 -0.079203
v 0.027793 -0.008565 0.079203
v -0.027793 -0.008565 0.079203
v -0.027793 0.090029 0.079203
v -0.027793 0.090029 -0.079203
v 0.027793 0.090029 -0.079203
v 0.027793 0.090029 0.079203
v -0.027793 -0.008565 -0.079203
v 0.027793 -0.008565 -0.079203
v 0.027793 -0.008565 0.079203
v -0.023328 0.040640 -0.173230
v -0.027793 -0.008565 -0.160506
v -0.027793 0.090029 -0.160506
v -0.023328 0.040824 -0.173230
v 0.027793 0.090029 -0.160506
v 0.023328 0.040824 -0.173230
v 0.027793 -0.008565 -0.160506
v 0.023328 0.040640 -0.173230
v 0.023328 0.040640 0.173230
v 0.027793 -0.008565 0.160506
v 0.027793 0.090029 0.160506
v 0.023328 0.040824 0.173230
v -0.027793 0.090029 0.160506
v -0.023328 0.040824 0.173230
v -0.027793 -0.008565 0.160506
v -0.023328 0.040640 0.173230
v -0.027793 0.090029 0.079203
v -0.027793 0.090029 -0.079203
v 0.027793 0.090029 -0.079203
v 0.027793 0.090029 0.079203
v -0.011392 0.247895 0.070311
v 0.000000 0.247895 -0.070311
v 0.000000 0.247895 -0.070311
v 0.011392 0.247895 0.070311
v -0.011392 0.365551 0.037452
v 0.000000 0.365551 -0.103169
v 0.000000 0.365551 -0.103169
v 0.011392 0.365551 0.037452
v -0.011392 0.454588 -0.002827
v 0.000000 0.454588 -0.143448
v 0.000000 0.454588 -0.143448
v 0.011392 0.454588 -0.002827
v -0.011392 0.545617 -0.060828
v 0.000000 0.545617 -0.201449
v 0.000000 0.545617 -0.201449
v 0.011392 0.545617 -0.060828
v -0.011392 0.618881 -0.131039
v 0.000000 0.618881 -0.256397
v 0.000000 0.618881 -0.256397
v 0.011392 0.618881 -0.131039
v -0.011392 0.682988 -0.211936
v 0.000000 0.686040 -0.318977
v 0.000000 0.686040 -0.318977
v 0.011392 0.682988 -0.211936
v -0.011392 0.739462 -0.311148
v 0.000000 0.762358 -0.376978
v 0.000000 0.762358 -0.376978
v 0.011392 0.739462 -0.311148
v -0.027793 -0.522581 0.000000
v -0.027793 0.090029 0.000000
v 0.027793 -0.522581 0.000000
v 0.027793 0.090029 0.000000
v 0.027793 -0.008565 0.000000
v -0.027793 -0.008565 0.000000
v -0.024673 0.090029 0.000000
v 0.024673 0.090029 0.000000
v -0.024673 0.247895 0.000000
v 0.024673 0.247895 0.000000
v -0.024673 0.365551 -0.032859
v 0.024673 0.365551 -0.032859
v -0.024673 0.454588 -0.073137
v 0.024673 0.454588 -0.073137
v -0.024673 0.545617 -0.131138
v 0.024673 0.545617 -0.131138
v -0.024673 0.618881 -0.193718
v 0.024673 0.618881 -0.193718
v -0.024673 0.684514 -0.265456
v 0.024673 0.684514 -0.265456
v -0.011392 0.750910 -0.344063
v 0.011392 0.750910 -0.344063
vt 0.575325 0.205568
vt 0.575325 0.244306
vt 0.452814 0.244306
vt 0.452814 0.205568
vt 0.000000 0.000000
vt 0.000000 0.000000
vt 0.000000 0.000000
vt 0.000000 0.000000
vt 0.575325 0.290264
vt 0.575325 0.251527
vt 0.697836 0.251527
vt 0.697836 0.290264
vt 0.000000 0.000000
vt 0.000000 0.000000
vt 0.000000 0.000000
vt 0.000000 0.000000
vt 0.823408 0.740138
vt 0.823408 0.499443
vt 0.943520 0.499443
vt 0.943520 0.740138
vt 0.227660 0.624021
vt 0.433736 0.624021
vt 0.433736 0.864716
vt 0.227660 0.864716
vt 0.575325 0.492222
vt 0.697836 0.492222
vt 0.704602 0.003610
vt 0.910678 0.003610
vt 0.910678 0.244306
vt 0.704602 0.244306
vt 0.575325 0.003610
vt 0.452814 0.003610
vt 0.000000 0.000000
vt 0.000000 0.000000
vt 0.000000 0.000000
vt 0.000000 0.000000
vt 0.000000 0.000000
vt 0.000000 0.000000
vt 0.000000 0.000000
vt 0.000000 0.000000
vt 0.000000 0.000000
vt 0.000000 0.000000
vt 0.000000 0.000000
vt 0.000000 0.000000
vt 0.000000 0.000000
vt 0.000000 0.000000
vt 0.000000 0.000000
vt 0.000000 0.000000
vt 0.850409 0.492222
vt 0.727113 0.492222
vt 0.727113 0.251527
vt 0.850409 0.251527
vt 0.967516 0.720805
vt 0.967443 0.720805
vt 0.967443 0.518775
vt 0.967516 0.518775
vt 0.987301 0.745597
vt 0.987301 0.868844
vt 0.947774 0.868844
vt 0.947774 0.745597
vt 0.907061 0.889769
vt 0.907061 0.766522
vt 0.946588 0.766522
vt 0.946588 0.889769
vt 0.714551 0.747359
vt 0.839405 0.747359
vt 0.839405 0.988054
vt 0.714551 0.988054
vt 0.977756 0.492222
vt 0.854459 0.492222
vt 0.854459 0.251527
vt 0.977756 0.251527
vt 0.979976 0.472889
vt 0.979903 0.472889
vt 0.979903 0.270859
vt 0.979976 0.270859
vt 0.914362 0.146021
vt 0.914362 0.022774
vt 0.953889 0.022774
vt 0.953889 0.146021
vt 0.002207 0.725666
vt 0.127061 0.725666
vt 0.127061 0.966361
vt 0.002207 0.966361
vt 0.987243 0.740138
vt 0.947716 0.740138
vt 0.947716 0.499443
vt 0.987243 0.499443
vt 0.703712 0.472889
vt 0.703712 0.270859
vt 0.926787 0.745906
vt 0.926861 0.745906
vt 0.149319 0.744999
vt 0.149319 0.947029
vt 0.934089 0.002158
vt 0.934162 0.002158
vt 0.999703 0.251527
vt 0.999703 0.492222
vt 0.994602 0.001849
vt 0.994602 0.125096
vt 0.955075 0.125096
vt 0.955075 0.001849
vt 0.842228 0.852187
vt 0.842228 0.745351
vt 0.905518 0.745351
vt 0.905518 0.852187
vt 0.574416 0.726626
vt 0.682389 0.619790
vt 0.696045 0.740138
vt 0.574416 0.740138
vt 0.682389 0.619790
vt 0.696045 0.499443
vt 0.574416 0.512954
vt 0.466443 0.570463
vt 0.452787 0.499443
vt 0.574416 0.499443
vt 0.466443 0.669118
vt 0.452787 0.740138
vt 0.162618 0.711540
vt 0.061951 0.711540
vt 0.061951 0.655716
vt 0.162618 0.655716
vt 0.578989 0.928611
vt 0.489797 0.996268
vt 0.451057 0.947219
vt 0.540250 0.879561
vt 0.215766 0.833576
vt 0.215766 0.932231
vt 0.152475 0.932231
vt 0.152475 0.833576
vt 0.000000 0.000000
vt 0.000000 0.000000
vt 0.000000 0.000000
vt 0.000000 0.000000
vt 0.000000 0.000000
vt 0.000000 0.000000
vt 0.000000 0.000000
vt 0.000000 0.000000
vt 0.226204 0.009035
vt 0.335218 0.113531
vt 0.335218 0.171988
vt 0.226204 0.067492
vt 0.462378 0.880175
vt 0.551570 0.812517
vt 0.226204 0.134636
vt 0.335218 0.239132
vt 0.335218 0.332778
vt 0.226204 0.228282
vt 0.489797 0.815138
vt 0.578989 0.747480
vt 0.061951 0.590275
vt 0.162618 0.590275
vt 0.162618 0.498054
vt 0.061951 0.498054
vt 0.061951 0.388419
vt 0.162618 0.388419
vt 0.221299 0.484459
vt 0.221299 0.392238
vt 0.000000 0.000000
vt 0.000000 0.000000
vt 0.226204 0.327280
vt 0.335218 0.420434
vt 0.335218 0.518933
vt 0.226204 0.439265
vt 0.000000 0.000000
vt 0.000000 0.000000
vt 0.221299 0.294089
vt 0.335218 0.611376
vt 0.284885 0.561521
vt 0.162618 0.263200
vt 0.221299 0.182569
vt 0.061951 0.263200
vt 0.000000 0.000000
vt 0.000000 0.000000
vt 0.162618 0.060672
vt 0.061951 0.060672
vt 0.112285 0.010515
vt 0.112285 0.010515
vt 0.162618 0.110829
vt 0.061951 0.110829
vt 0.000000 0.000000
vt 0.000000 0.000000
vt 0.447503 0.101478
vt 0.338489 0.181145
vt 0.397170 0.058890
vt 0.447503 0.009035
vt 0.447503 0.199977
vt 0.338489 0.293130
vt 0.003270 0.182569
vt 0.447503 0.287633
vt 0.338489 0.392129
vt 0.003270 0.392238
vt 0.003270 0.294089
vt 0.447503 0.381279
vt 0.338489 0.485775
vt 0.447503 0.448423
vt 0.338489 0.552918
vt 0.594148 0.863574
vt 0.683340 0.931231
vt 0.710759 0.996268
vt 0.621567 0.928611
vt 0.003270 0.484459
vt 0.447503 0.506880
vt 0.338489 0.611376
vt 0.582827 0.796530
vt 0.672019 0.864187
vt 0.215766 0.723658
vt 0.215766 0.830494
vt 0.152475 0.830494
vt 0.152475 0.723658
vt 0.621567 0.747480
vt 0.710759 0.815138
vt 0.697836 0.003610
vt 0.697836 0.205568
vt 0.452814 0.492222
vt 0.452814 0.290264
vt 0.703297 0.740138
vt 0.703297 0.499443
vt 0.452814 0.251527
vt 0.697836 0.244306
vn -1.0000 0.0000 0.0000
vn 0.0000 0.0000 1.0000
vn 1.0000 0.0000 0.0000
vn 0.0000 -1.0000 0.0000
vn 0.0000 0.0000 -1.0000
vn 0.0000 1.0000 0.0000
vn -0.9436 0.0000 -0.3311
vn 0.0000 0.2503 -0.9682
vn 0.9436 0.0000 -0.3311
vn 0.0000 -0.2503 -0.9682
vn 0.9436 0.0000 0.3311
vn 0.0000 0.2503 0.9682
vn -0.9436 0.0000 0.3311
vn 0.0000 -0.2503 0.9682
vn 0.0000 0.2690 0.9631
vn -0.9826 0.0000 0.1856
vn 0.9396 -0.0921 -0.3297
vn -0.9813 0.0518 0.1854
vn 0.9233 -0.2064 -0.3240
vn 0.9332 -0.1481 -0.3275
vn -0.9792 0.0837 0.1850
vn 0.0000 0.4122 0.9111
vn 0.0000 0.6919 0.7220
vn -0.9758 0.1174 0.1843
vn 0.0000 0.5374 0.8434
vn 0.8529 -0.3713 -0.3671
vn 0.9030 -0.2688 -0.3351
vn -0.9655 0.1748 0.1928
vn 0.8607 -0.3079 -0.4054
vn -0.9413 0.2571 0.2186
vn 0.0000 0.7837 0.6211
vn 0.0000 0.9445 0.3285
vn -0.9034 0.3814 0.1961
vn 0.0000 0.8691 0.4947
vn -0.8607 -0.3079 -0.4054
vn -0.8529 -0.3713 -0.3671
vn 0.9034 0.3814 0.1961
vn -0.9030 -0.2688 -0.3351
vn 0.9655 0.1748 0.1928
vn 0.9413 0.2571 0.2186
vn -0.9233 -0.2064 -0.3240
vn -0.9332 -0.1481 -0.3275
vn 0.9792 0.0837 0.1850
vn 0.9758 0.1174 0.1843
vn -0.9396 -0.0921 -0.3297
vn 0.9813 0.0518 0.1854
vn 0.9826 0.0000 0.1856
usemtl Material.001
s off
f 82/1/1 78/2/1 46/3/1 10/4/1
f 10/5/2 46/6/2 15/7/2 18/8/2
f 81/9/3 80/10/3 48/11/3 12/12/3
f 12/13/2 48/14/2 17/15/2 20/16/2
f 77/17/4 79/18/4 5/19/4 1/20/4
f 5/21/2 12/22/2 9/23/2 1/24/2
f 79/25/3 81/9/3 12/12/3 5/26/3
f 3/27/5 10/28/5 11/29/5 7/30/5
f 77/31/1 82/1/1 10/4/1 3/32/1
f 13/33/2 20/16/2 28/34/2 21/35/2
f 15/7/2 16/36/2 24/37/2 23/38/2
f 48/14/2 45/39/2 14/40/2 17/15/2
f 11/41/2 10/5/2 18/8/2 19/42/2
f 9/43/2 12/13/2 20/16/2 13/33/2
f 46/6/2 47/44/2 16/36/2 15/7/2
f 47/44/2 11/41/2 19/42/2 16/36/2
f 45/39/2 9/43/2 13/33/2 14/40/2
f 16/36/2 19/42/2 27/45/2 24/37/2
f 17/15/2 14/40/2 22/46/2 25/47/2
f 14/40/2 13/33/2 21/35/2 22/46/2
f 19/42/2 18/8/2 26/48/2 27/45/2
f 20/16/2 17/15/2 25/47/2 28/34/2
f 18/8/2 15/7/2 23/38/2 26/48/2
f 26/49/4 30/50/4 35/51/4 27/52/4
f 29/53/5 32/54/5 34/55/5 36/56/5
f 27/57/3 35/58/3 33/59/3 24/60/3
f 25/61/3 39/62/3 38/63/3 28/64/3
f 24/65/6 33/66/6 31/67/6 23/68/6
f 28/69/4 38/70/4 43/71/4 21/72/4
f 37/73/2 40/74/2 42/75/2 44/76/2
f 21/77/1 43/78/1 41/79/1 22/80/1
f 22/81/6 41/82/6 39/83/6 25/84/6
f 32/54/7 29/53/7 30/85/7 31/86/7
f 34/55/8 32/54/8 31/86/8 33/87/8
f 36/56/9 34/55/9 33/87/9 35/88/9
f 29/89/10 36/90/10 35/51/10 30/50/10
f 40/91/11 37/92/11 38/63/11 39/62/11
f 42/93/12 40/94/12 39/83/12 41/82/12
f 44/95/13 42/96/13 41/79/13 43/78/13
f 37/73/14 44/76/14 43/97/14 38/98/14
f 23/99/1 31/100/1 30/101/1 26/102/1
f 84/103/9 8/104/9 51/105/9 86/106/9
f 83/107/6 4/108/6 46/109/6 78/110/6
f 4/108/6 8/111/6 47/112/6 46/109/6
f 84/113/6 6/114/6 48/115/6 80/116/6
f 6/114/6 2/117/6 45/118/6 48/115/6
f 49/119/15 52/120/15 56/121/15 53/122/15
f 83/123/16 2/124/16 49/125/16 85/126/16
f 2/127/2 6/128/2 52/129/2 49/130/2
f 8/131/2 4/132/2 50/133/2 51/134/2
f 55/135/2 54/136/2 58/137/2 59/138/2
f 51/134/2 50/133/2 54/136/2 55/135/2
f 86/139/17 51/140/17 55/141/17 88/142/17
f 85/126/18 49/125/18 53/143/18 87/144/18
f 90/145/19 59/146/19 63/147/19 92/148/19
f 88/142/20 55/141/20 59/146/20 90/145/20
f 87/144/21 53/143/21 57/149/21 89/150/21
f 53/122/22 56/121/22 60/151/22 57/152/22
f 61/153/23 64/154/23 68/155/23 65/156/23
f 89/157/24 57/152/24 61/153/24 91/158/24
f 57/152/25 60/151/25 64/154/25 61/153/25
f 59/138/2 58/137/2 62/159/2 63/160/2
f 94/161/26 67/162/26 71/163/26 96/164/26
f 63/160/2 62/159/2 66/165/2 67/166/2
f 92/148/27 63/147/27 67/162/27 94/161/27
f 91/158/28 61/153/28 65/156/28 93/167/28
f 96/164/29 71/163/29 75/168/29 98/169/29
f 93/167/30 65/156/30 69/170/30 95/171/30
f 65/156/31 68/155/31 72/172/31 69/170/31
f 67/166/2 66/165/2 70/173/2 71/174/2
f 97/175/32 98/176/32 75/177/32 74/178/32
f 95/171/33 69/170/33 73/179/33 97/175/33
f 69/170/34 72/172/34 76/180/34 73/179/34
f 71/174/2 70/173/2 74/181/2 75/182/2
f 70/183/35 95/184/35 97/185/35 74/186/35
f 73/179/32 76/180/32 98/176/32 97/175/32
f 66/187/36 93/188/36 95/184/36 70/183/36
f 72/172/37 96/189/37 98/176/37 76/180/37
f 62/190/38 91/191/38 93/188/38 66/187/38
f 64/154/39 92/192/39 94/193/39 68/155/39
f 68/155/40 94/193/40 96/189/40 72/172/40
f 58/194/41 89/195/41 91/191/41 62/190/41
f 54/196/42 87/197/42 89/195/42 58/194/42
f 56/198/43 88/199/43 90/200/43 60/201/43
f 60/151/44 90/202/44 92/192/44 64/154/44
f 50/203/45 85/204/45 87/197/45 54/196/45
f 52/205/46 86/206/46 88/199/46 56/198/46
f 4/207/7 83/208/7 85/209/7 50/210/7
f 8/111/6 84/113/6 80/116/6 47/112/6
f 2/117/6 83/107/6 78/110/6 45/118/6
f 6/211/47 84/212/47 86/206/47 52/205/47
f 1/213/1 9/214/1 82/1/1 77/31/1
f 7/215/3 11/216/3 81/9/3 79/25/3
f 3/217/4 7/218/4 79/18/4 77/17/4
f 11/216/3 47/219/3 80/10/3 81/9/3
f 9/214/1 45/220/1 78/2/1 82/1/1
